<svg width="178" height="30" viewBox="0 0 178 30" fill="none" xmlns="http://www.w3.org/2000/svg">
<path d="M116.298 9.10293C115.526 7.28056 114.473 5.70771 113.089 4.36655C111.728 3.03431 110.108 1.9694 108.216 1.17184C106.341 0.392099 104.27 0 102.043 0C99.8162 0 97.7275 0.392099 95.8352 1.17184C93.9339 1.9694 92.3094 3.05213 90.9258 4.41111C89.5646 5.779 88.4979 7.36967 87.7169 9.17422C87.3152 10.1099 87.0162 11.0723 86.8332 12.0615H93.6661C93.7286 11.8432 93.8045 11.6248 93.8937 11.4154C94.3133 10.3193 94.9024 9.37472 95.6745 8.53706C96.4288 7.71276 97.3481 7.05778 98.4193 6.59439C99.4726 6.12209 100.664 5.89485 101.963 5.89485C103.262 5.89485 104.409 6.13991 105.489 6.62112C106.578 7.10233 107.497 7.75731 108.296 8.58161C109.077 9.42373 109.688 10.3862 110.121 11.4778C110.193 11.6694 110.26 11.8699 110.322 12.0659H117.186C117.003 11.0322 116.713 10.0609 116.312 9.10738L116.298 9.10293ZM110.389 17.7737C110.3 18.0544 110.206 18.3262 110.108 18.5979C109.68 19.694 109.082 20.6386 108.327 21.4674C107.555 22.3006 106.645 22.9556 105.565 23.419C104.485 23.8913 103.302 24.1185 102.039 24.1185C100.776 24.1185 99.5484 23.8735 98.4773 23.3922C97.4062 22.911 96.4868 22.2561 95.7057 21.4318C94.9069 20.5985 94.3043 19.6272 93.8804 18.5267C93.7732 18.2816 93.6974 18.0276 93.626 17.7737H86.7752C86.9582 18.8697 87.2572 19.899 87.6856 20.906C88.4399 22.7105 89.511 24.2834 90.8678 25.6424C92.2513 26.9746 93.8759 28.0395 95.7504 28.8192C97.6427 29.6168 99.6868 30 101.941 30C104.194 30 106.256 29.6168 108.14 28.8192C110.032 28.0395 111.675 26.9612 113.04 25.5978C114.415 24.2165 115.486 22.6392 116.249 20.8258C116.678 19.8455 116.977 18.8296 117.177 17.7692H110.371L110.389 17.7737Z" fill="white"/>
<path d="M143.505 29.5099L129.433 11.0679V29.5099H123.122V0.499035H129.018L142.635 18.3618V0.499035H148.946V29.5099H143.505Z" fill="white"/>
<path d="M155.917 29.5099V0.499035H177.795V6.17555H162.228V12.0615H175.925V17.738H162.228V23.8289H178V29.5054H155.917V29.5099Z" fill="white"/>
<path d="M18.7627 29.5099L9.75624 17.1588L6.39556 20.6386V29.5054H0V0.499035H6.39109V13.1799L18.1825 0.499035H25.9036L14.072 12.8056L26.4436 29.5054H18.7627V29.5099Z" fill="#F6CA6A"/>
<path d="M30.3041 29.5099V0.499035H52.182V6.17555H36.6149V12.0615H50.312V17.738H36.6149V23.8289H52.3873V29.5054H30.3041V29.5099Z" fill="#F6CA6A"/>
<path d="M72.6853 17.9474V29.5099H66.2942V18.0722L55.1277 0.499035H62.5988L69.5299 12.1461L76.586 0.499035H83.8519L72.6853 17.9474Z" fill="#F6CA6A"/>
</svg>
